<?xml version="1.0" standalone="no"?>
<!DOCTYPE svg PUBLIC "-//W3C//DTD SVG 20010904//EN"
 "http://www.w3.org/TR/2001/REC-SVG-20010904/DTD/svg10.dtd">
<svg version="1.0" xmlns="http://www.w3.org/2000/svg"
 width="1067.000000pt" height="1067.000000pt" viewBox="0 0 1067.000000 1067.000000"
 preserveAspectRatio="xMidYMid meet">

<g transform="translate(0.000000,1067.000000) scale(0.100000,-0.100000)"
fill="#000000" stroke="none">
<path d="M4940 10659 c-1014 -76 -1999 -446 -2805 -1053 -213 -160 -356 -286
-571 -500 -215 -215 -348 -367 -507 -581 -825 -1106 -1189 -2484 -1017 -3855
88 -704 327 -1409 681 -2015 241 -412 502 -749 843 -1090 261 -261 513 -469
806 -665 1393 -932 3143 -1153 4730 -597 517 180 1023 452 1450 778 666 508
1185 1132 1554 1869 204 409 349 818 441 1245 330 1533 -8 3090 -942 4340
-208 279 -535 629 -793 849 -878 750 -1955 1192 -3105 1276 -163 12 -599 11
-765 -1z m705 -209 c1178 -76 2234 -519 3118 -1307 784 -701 1347 -1667 1577
-2710 135 -615 151 -1311 44 -1953 -356 -2138 -2056 -3838 -4194 -4194 -1077
-179 -2170 -19 -3128 459 -315 157 -541 296 -810 500 -1287 969 -2042 2482
-2042 4090 0 1210 417 2356 1198 3295 124 148 484 508 632 632 676 563 1451
934 2300 1102 216 43 428 68 740 89 113 8 420 6 565 -3z"/>
<path d="M3974 7992 c4 -59 11 -170 16 -247 5 -77 10 -336 10 -576 l0 -436
-102 -7 c-243 -16 -562 -26 -815 -26 -151 0 -273 -4 -273 -9 0 -5 32 -91 71
-192 39 -101 80 -208 91 -236 l19 -53 92 0 c111 0 331 14 641 40 126 11 240
20 253 20 l23 0 0 -584 0 -584 -127 -68 c-71 -37 -432 -230 -803 -429 -371
-199 -716 -383 -767 -410 l-92 -48 210 -218 210 -218 113 70 c62 38 126 71
142 75 61 12 157 -72 533 -464 372 -388 523 -491 722 -492 176 0 267 70 310
240 12 45 13 207 10 926 l-3 870 58 26 c381 170 820 290 1170 320 112 9 149 8
248 -6 575 -82 917 -467 892 -1001 -11 -252 -83 -424 -245 -586 -136 -136
-282 -204 -466 -216 -155 -10 -282 21 -469 113 -89 44 -112 52 -122 42 -7 -7
-71 -93 -143 -191 l-131 -177 93 -61 c256 -169 465 -228 760 -216 218 9 386
53 575 152 224 116 417 324 511 550 84 200 116 393 108 640 -22 664 -390 1160
-961 1295 -132 32 -222 41 -398 41 -357 -1 -672 -62 -1178 -231 -146 -49 -273
-91 -283 -95 -16 -7 -17 19 -15 501 l3 507 215 39 c534 95 960 183 997 206 9
6 8 64 -4 252 -9 135 -17 246 -18 248 -2 2 -94 -25 -206 -58 -314 -96 -643
-175 -931 -224 l-38 -7 0 93 c0 189 32 532 76 808 14 85 27 176 31 201 l5 46
-258 63 c-143 35 -283 69 -313 76 l-54 13 7 -107z m24 -3829 c-2 -390 -6 -513
-16 -530 -49 -87 -201 7 -522 324 l-195 193 30 25 c126 106 673 493 698 495 4
0 7 -228 5 -507z"/>
<path d="M6253 6833 c-66 -93 -122 -173 -126 -179 -3 -6 43 -32 116 -63 367
-160 668 -349 970 -611 66 -56 122 -98 127 -94 5 5 61 90 125 189 l117 180
-42 37 c-146 130 -483 367 -677 477 -115 65 -457 231 -475 231 -8 0 -68 -75
-135 -167z"/>
</g>
</svg>
